<svg width="18" height="15" viewBox="0 0 18 15" fill="none" xmlns="http://www.w3.org/2000/svg">
<path d="M1.66667 11.6667V5C1.66667 5.05556 1.66667 5.15278 1.66667 5.29167C1.66667 5.43056 1.66667 5.61111 1.66667 5.83333V10.9167V11.6667ZM1.66667 13.3333C1.20833 13.3333 0.815972 13.1701 0.489583 12.8438C0.163194 12.5174 0 12.125 0 11.6667V1.66667C0 1.20833 0.163194 0.815972 0.489583 0.489583C0.815972 0.163194 1.20833 0 1.66667 0L3.33333 3.33333H5.83333L4.16667 0H5.83333L7.5 3.33333H10L8.33333 0H10L11.6667 3.33333H14.1667L12.5 0H15C15.4583 0 15.8507 0.163194 16.1771 0.489583C16.5035 0.815972 16.6667 1.20833 16.6667 1.66667V5H15H1.66667V11.6667H8.33333V13.3333H1.66667ZM10 14.1667V11.6042L14.6042 7.02083C14.7292 6.89583 14.8681 6.80556 15.0208 6.75C15.1736 6.69444 15.3264 6.66667 15.4792 6.66667C15.6458 6.66667 15.8056 6.69792 15.9583 6.76042C16.1111 6.82292 16.25 6.91667 16.375 7.04167L17.1458 7.8125C17.2569 7.9375 17.3438 8.07639 17.4062 8.22917C17.4688 8.38194 17.5 8.53472 17.5 8.6875C17.5 8.84028 17.4722 8.99653 17.4167 9.15625C17.3611 9.31597 17.2708 9.45833 17.1458 9.58333L12.5625 14.1667H10ZM16.25 8.6875L15.4792 7.91667L16.25 8.6875ZM11.25 12.9167H12.0417L14.5625 10.375L14.1875 9.97917L13.7917 9.60417L11.25 12.125V12.9167ZM14.1875 9.97917L13.7917 9.60417L14.5625 10.375L14.1875 9.97917Z" fill="#818CF8"/>
</svg>
