<svg width="12" height="7" viewBox="0 0 12 7" fill="none" xmlns="http://www.w3.org/2000/svg">
<path d="M2.66667 1.33333V0H12V1.33333H2.66667ZM2.66667 4V2.66667H12V4H2.66667ZM2.66667 6.66667V5.33333H12V6.66667H2.66667ZM0.666667 1.33333C0.477778 1.33333 0.319444 1.26944 0.191667 1.14167C0.0638889 1.01389 0 0.855556 0 0.666667C0 0.477778 0.0638889 0.319444 0.191667 0.191667C0.319444 0.0638889 0.477778 0 0.666667 0C0.855556 0 1.01389 0.0638889 1.14167 0.191667C1.26944 0.319444 1.33333 0.477778 1.33333 0.666667C1.33333 0.855556 1.26944 1.01389 1.14167 1.14167C1.01389 1.26944 0.855556 1.33333 0.666667 1.33333ZM0.666667 4C0.477778 4 0.319444 3.93611 0.191667 3.80833C0.0638889 3.68056 0 3.52222 0 3.33333C0 3.14444 0.0638889 2.98611 0.191667 2.85833C0.319444 2.73056 0.477778 2.66667 0.666667 2.66667C0.855556 2.66667 1.01389 2.73056 1.14167 2.85833C1.26944 2.98611 1.33333 3.14444 1.33333 3.33333C1.33333 3.52222 1.26944 3.68056 1.14167 3.80833C1.01389 3.93611 0.855556 4 0.666667 4ZM0.666667 6.66667C0.477778 6.66667 0.319444 6.60278 0.191667 6.475C0.0638889 6.34722 0 6.18889 0 6C0 5.81111 0.0638889 5.65278 0.191667 5.525C0.319444 5.39722 0.477778 5.33333 0.666667 5.33333C0.855556 5.33333 1.01389 5.39722 1.14167 5.525C1.26944 5.65278 1.33333 5.81111 1.33333 6C1.33333 6.18889 1.26944 6.34722 1.14167 6.475C1.01389 6.60278 0.855556 6.66667 0.666667 6.66667Z" fill="#4648D4"/>
</svg>
