<svg width="14" height="14" viewBox="0 0 14 14" fill="none" xmlns="http://www.w3.org/2000/svg">
<g clip-path="url(#clip0_187_312)">
<path d="M13.4167 2.33342V5.83342M13.4167 5.83342H9.91671M13.4167 5.83342L10.71 3.29008C10.0831 2.66283 9.30749 2.20462 8.45557 1.9582C7.60365 1.71178 6.70319 1.68519 5.83821 1.8809C4.97323 2.07661 4.17192 2.48825 3.50906 3.07741C2.8462 3.66657 2.34339 4.41404 2.04754 5.25008M0.583374 11.6668V8.16675M0.583374 8.16675H4.08337M0.583374 8.16675L3.29004 10.7101C3.91698 11.3373 4.69259 11.7955 5.54451 12.042C6.39643 12.2884 7.29689 12.315 8.16187 12.1193C9.02685 11.9236 9.82816 11.5119 10.491 10.9228C11.1539 10.3336 11.6567 9.58613 11.9525 8.75008" stroke="#475569" stroke-width="1.5" stroke-linecap="round" stroke-linejoin="round"/>
</g>
<defs>
<clipPath id="clip0_187_312">
<rect width="14" height="14" fill="white"/>
</clipPath>
</defs>
</svg>
